<svg display="none" xmlns="http://www.w3.org/2000/svg" xmlns:xlink="http://www.w3.org/1999/xlink"><symbol fill="none" viewBox="0 0 24 24" id="arrow"><path stroke="currentColor" stroke-width="2" d="M17 2 7 12l10 10"/></symbol><symbol fill="none" viewBox="0 0 301 377" id="background-left-pattern"><g opacity=".4"><path fill="currentColor" d="M228.904 163.393H-17.027v2.928h245.931v-2.928ZM-28.732 151.685h-2.928v-17.567c0-.439.146-.732.439-1.024l89.59-89.297c.292-.293.585-.439 1.024-.439h81.684v2.928H59.979l-88.711 88.418v16.981ZM183.53 299.537H73.739c-.44 0-.732-.147-1.025-.44L-31.22 195.162c-.293-.293-.44-.585-.44-1.025v-14.638h2.929v14.053L74.324 296.609H183.53v2.928Z"/><path fill="currentColor" d="M110.331 205.848H51.483c-.44 0-.732-.146-1.025-.439l-39.524-39.232 2.049-2.049 39.086 38.792h58.262v2.928ZM69.64 166.029l-2.05-2.049 39.378-39.671c.293-.293.586-.439 1.025-.439h59.433v2.928h-58.848l-38.939 39.231ZM293.311 91.665H60.847c-.439 0-.732-.146-1.025-.44L36.547 67.659l2.05-2.05 22.836 23.13H293.31v2.927ZM86.03 45.849l-2.05-2.05 38.061-38.06c.293-.293.586-.44 1.025-.44h121.941v2.928H123.652L86.03 45.85ZM109.746 371.268l-58.994-58.994c-.293-.293-.44-.586-.44-1.025v-35.133h2.928v34.547l58.555 58.555-2.049 2.05ZM96.424 298.655l-2.049-2.05 38.793-39.085c.293-.293.585-.439 1.024-.439h147.413v2.927H134.924l-38.5 38.647ZM233.298 340.526h-65.582c-.439 0-.732-.146-1.024-.439l-41.282-41.281 2.05-2.05 40.842 40.843h64.996v2.927Z"/><path fill="currentColor" d="M245.011 13.494a6.734 6.734 0 1 0 0-13.468 6.734 6.734 0 0 0 0 13.468ZM154.251 60.337c-8.49 0-15.517-6.88-15.517-15.517 0-8.636 6.881-15.517 15.517-15.517 8.637 0 15.518 6.88 15.518 15.517s-7.027 15.517-15.518 15.517Zm0-28.106c-6.88 0-12.589 5.71-12.589 12.59s5.709 12.589 12.589 12.589c6.881 0 12.59-5.71 12.59-12.59s-5.709-12.589-12.59-12.589Z"/><path fill="currentColor" d="M154.246 51.552a6.733 6.733 0 0 0 6.733-6.734 6.733 6.733 0 1 0-13.467 0 6.734 6.734 0 0 0 6.734 6.734ZM300.05 90.494c0 3.66-3.074 6.734-6.734 6.734s-6.734-3.074-6.734-6.734 3.074-6.734 6.734-6.734 6.734 2.928 6.734 6.734ZM167.421 132.068a6.734 6.734 0 1 0 0-13.468 6.734 6.734 0 0 0 0 13.468ZM242.08 180.377c-8.491 0-15.518-6.881-15.518-15.517 0-8.637 6.881-15.518 15.518-15.518 8.636 0 15.517 6.881 15.517 15.518 0 8.636-7.027 15.517-15.517 15.517Zm0-28.107c-6.881 0-12.59 5.709-12.59 12.59 0 6.88 5.709 12.589 12.59 12.589 6.88 0 12.589-5.709 12.589-12.589 0-6.881-5.709-12.59-12.589-12.59Z"/><path fill="currentColor" d="M242.074 171.591a6.734 6.734 0 1 0 0-13.468 6.734 6.734 0 0 0 0 13.468ZM110.324 211.119a6.734 6.734 0 1 0 0-13.468 6.734 6.734 0 0 0 0 13.468ZM281.609 265.283a6.734 6.734 0 1 0 0-13.468 6.734 6.734 0 0 0 0 13.468ZM196.701 313.298c-8.491 0-15.517-6.88-15.517-15.517s6.88-15.517 15.517-15.517 15.517 6.88 15.517 15.517-7.027 15.517-15.517 15.517Zm0-28.106c-6.881 0-12.59 5.709-12.59 12.589 0 6.881 5.709 12.59 12.59 12.59 6.88 0 12.589-5.709 12.589-12.59 0-6.88-5.709-12.589-12.589-12.589Z"/><path fill="currentColor" d="M203.433 297.779c0 3.66-3.075 6.734-6.734 6.734-3.66 0-6.734-3.074-6.734-6.734 0-3.659 3.074-6.733 6.734-6.733 3.659 0 6.734 3.074 6.734 6.733ZM233.296 345.794a6.733 6.733 0 1 0 0-13.467 6.734 6.734 0 0 0 0 13.467ZM117.511 370.24c0 3.66-3.075 6.734-6.734 6.734-3.66 0-6.734-3.074-6.734-6.734s3.074-6.734 6.734-6.734c3.806.147 6.734 3.074 6.734 6.734Z"/><g fill="currentColor" opacity=".4"><path d="M228.914 163.393h-248.86v2.928h248.86v-2.928ZM-28.732 151.685h-2.928v-17.567c0-.439.146-.732.439-1.024l89.59-89.297c.292-.293.585-.439 1.024-.439h81.684v2.928H59.979l-88.711 88.418v16.981ZM183.53 299.537H73.739c-.44 0-.732-.147-1.025-.44L-31.22 195.162c-.293-.293-.44-.585-.44-1.025v-14.638h2.929v14.053L74.324 296.609H183.53v2.928Z"/><path d="M110.335 205.848H51.487c-.44 0-.732-.146-1.025-.439l-39.525-39.232 2.05-2.049 39.085 38.792h58.263v2.928ZM69.64 166.029l-2.05-2.049 39.378-39.671c.293-.293.586-.439 1.025-.439h59.433v2.928h-58.848l-38.939 39.231ZM293.319 91.665H60.855c-.44 0-.732-.146-1.025-.44L36.555 67.659l2.05-2.05 22.836 23.13h231.878v2.927ZM86.038 45.849l-2.05-2.05L122.05 5.74c.293-.293.586-.44 1.025-.44h121.941v2.928H123.659L86.038 45.85ZM109.75 371.268l-58.994-58.994c-.293-.293-.44-.586-.44-1.025v-35.133h2.928v34.547l58.555 58.555-2.049 2.05ZM96.424 298.655l-2.049-2.05 38.793-39.085c.293-.293.585-.439 1.024-.439h147.413v2.927H134.924l-38.5 38.647ZM233.298 340.526h-65.582c-.439 0-.732-.146-1.024-.439l-41.282-41.281 2.05-2.05 40.842 40.843h64.996v2.927Z"/><path d="M245.011 13.494a6.734 6.734 0 1 0 0-13.468 6.734 6.734 0 0 0 0 13.468ZM154.248 60.337c-8.491 0-15.518-6.88-15.518-15.517 0-8.636 6.881-15.517 15.518-15.517 8.636 0 15.517 6.88 15.517 15.517s-7.027 15.517-15.517 15.517Zm0-28.106c-6.881 0-12.59 5.71-12.59 12.59s5.709 12.589 12.59 12.589c6.88 0 12.589-5.71 12.589-12.59s-5.709-12.589-12.589-12.589ZM300.054 90.494c0 3.66-3.075 6.734-6.734 6.734-3.66 0-6.734-3.074-6.734-6.734s3.074-6.734 6.734-6.734c3.659 0 6.734 2.928 6.734 6.734ZM167.421 132.068a6.734 6.734 0 1 0 0-13.468 6.734 6.734 0 0 0 0 13.468ZM242.084 180.377c-8.491 0-15.518-6.881-15.518-15.517 0-8.637 6.881-15.518 15.518-15.518 8.636 0 15.517 6.881 15.517 15.518 0 8.636-7.027 15.517-15.517 15.517Zm0-28.107c-6.881 0-12.59 5.709-12.59 12.59 0 6.88 5.709 12.589 12.59 12.589 6.88 0 12.589-5.709 12.589-12.589 0-6.881-5.709-12.59-12.589-12.59ZM110.328 211.119a6.733 6.733 0 0 0 6.733-6.734 6.733 6.733 0 1 0-13.467 0 6.734 6.734 0 0 0 6.734 6.734ZM281.609 265.283a6.734 6.734 0 1 0 0-13.468 6.734 6.734 0 0 0 0 13.468ZM196.705 313.298c-8.491 0-15.517-6.88-15.517-15.517s6.88-15.517 15.517-15.517 15.517 6.88 15.517 15.517-7.027 15.517-15.517 15.517Zm0-28.106c-6.88 0-12.59 5.709-12.59 12.589 0 6.881 5.71 12.59 12.59 12.59s12.589-5.709 12.589-12.59c0-6.88-5.709-12.589-12.589-12.589ZM233.3 345.794a6.733 6.733 0 1 0 0-13.467 6.734 6.734 0 0 0 0 13.467ZM117.511 370.24c0 3.66-3.075 6.734-6.734 6.734-3.66 0-6.734-3.074-6.734-6.734s3.074-6.734 6.734-6.734c3.806.147 6.734 3.074 6.734 6.734Z"/></g></g></symbol><symbol fill="none" viewBox="0 0 296 377" id="background-right-pattern"><g opacity=".4"><path fill="currentColor" d="M71.803 213.607h245.931v-2.928H71.803v2.928ZM329.439 225.315h2.928v17.567c0 .439-.146.732-.439 1.024l-89.589 89.297c-.293.293-.586.439-1.025.439H159.63v-2.928h81.098l88.711-88.418v-16.981ZM117.177 77.464h109.791c.439 0 .732.146 1.025.439l103.935 103.935c.293.293.439.586.439 1.025v14.638h-2.928v-14.053L226.382 80.391H117.177v-2.927Z"/><path fill="currentColor" d="M190.376 171.152h58.848c.439 0 .732.146 1.025.439l39.524 39.232-2.049 2.05-39.086-38.793h-58.262v-2.928ZM231.068 210.971l2.049 2.049-39.378 39.671c-.293.293-.586.439-1.025.439h-59.433v-2.927h58.848l38.939-39.232ZM7.396 285.335H239.86c.439 0 .732.146 1.025.439l23.275 23.569-2.049 2.049-22.837-23.129H7.396v-2.928ZM214.677 331.155l2.05 2.05-38.061 38.06c-.293.293-.586.44-1.025.44H55.701v-2.928h121.354l37.622-37.622ZM190.961 5.732l58.994 58.995c.293.292.44.585.44 1.024v35.133h-2.928V66.337L188.912 7.782l2.049-2.05ZM204.283 78.345l2.049 2.05-38.793 39.085c-.292.293-.585.439-1.024.439H19.102v-2.927h146.681l38.5-38.647ZM67.41 36.474h65.581c.439 0 .732.146 1.025.439l41.281 41.281-2.05 2.05L132.405 39.4H67.409v-2.927Z"/><path fill="currentColor" d="M55.696 363.506a6.734 6.734 0 1 0 0 13.468 6.734 6.734 0 0 0 0-13.468ZM146.456 316.663c8.49 0 15.517 6.88 15.517 15.517s-6.881 15.517-15.517 15.517c-8.637 0-15.518-6.88-15.518-15.517s7.027-15.517 15.518-15.517Zm0 28.106c6.88 0 12.589-5.709 12.589-12.589 0-6.881-5.709-12.59-12.589-12.59-6.881 0-12.59 5.709-12.59 12.59 0 6.88 5.709 12.589 12.59 12.589Z"/><path fill="currentColor" d="M146.461 325.448a6.733 6.733 0 0 0-6.733 6.734 6.733 6.733 0 1 0 13.467 0 6.734 6.734 0 0 0-6.734-6.734ZM.657 286.506c0-3.66 3.074-6.734 6.734-6.734s6.734 3.074 6.734 6.734-3.074 6.734-6.734 6.734-6.734-2.928-6.734-6.734ZM133.286 244.932a6.734 6.734 0 1 0 0 13.468 6.734 6.734 0 0 0 0-13.468ZM58.627 196.624c8.49 0 15.517 6.88 15.517 15.517 0 8.636-6.88 15.517-15.517 15.517s-15.517-6.881-15.517-15.517c0-8.637 7.027-15.517 15.517-15.517Zm0 28.106c6.88 0 12.59-5.709 12.59-12.589 0-6.881-5.71-12.59-12.59-12.59s-12.589 5.709-12.589 12.59c0 6.88 5.71 12.589 12.59 12.589Z"/><path fill="currentColor" d="M58.633 205.409a6.734 6.734 0 1 0 0 13.468 6.734 6.734 0 0 0 0-13.468ZM190.383 165.881a6.734 6.734 0 1 0 0 13.468 6.734 6.734 0 0 0 0-13.468ZM19.098 111.717a6.734 6.734 0 1 0 0 13.468 6.734 6.734 0 0 0 0-13.468ZM104.006 63.702c8.491 0 15.517 6.88 15.517 15.517s-6.88 15.517-15.517 15.517c-8.636 0-15.517-6.88-15.517-15.517s7.027-15.517 15.517-15.517Zm0 28.106c6.881 0 12.59-5.709 12.59-12.59 0-6.88-5.709-12.589-12.59-12.589-6.88 0-12.589 5.71-12.589 12.59s5.71 12.59 12.589 12.59Z"/><path fill="currentColor" d="M97.275 79.22c0-3.659 3.074-6.733 6.733-6.733 3.66 0 6.734 3.074 6.734 6.734s-3.074 6.734-6.734 6.734c-3.659 0-6.733-3.075-6.733-6.734ZM67.41 31.206a6.734 6.734 0 1 0 0 13.467 6.734 6.734 0 0 0 0-13.467ZM183.196 6.76c0-3.66 3.075-6.734 6.734-6.734 3.66 0 6.734 3.074 6.734 6.734s-3.074 6.734-6.734 6.734c-3.806-.147-6.734-3.075-6.734-6.734Z"/><g fill="currentColor" opacity=".4"><path d="M183.196 213.479h137.456v-2.671H183.196v2.671ZM329.439 225.315h2.928v17.567c0 .439-.146.732-.439 1.024l-89.589 89.297c-.293.293-.586.439-1.025.439H159.63v-2.928h81.098l88.711-88.418v-16.981ZM117.177 77.464h109.791c.439 0 .732.146 1.025.439l103.935 103.935c.293.293.439.586.439 1.025v14.638h-2.928v-14.053L226.382 80.391H117.177v-2.927Z"/><path d="M190.372 171.152h58.848c.439 0 .732.146 1.025.439l39.525 39.232-2.05 2.05-39.085-38.793h-58.263v-2.928ZM231.068 210.971l2.049 2.049-39.378 39.671c-.293.293-.586.439-1.025.439h-39.433v-2.927h38.848l38.939-39.232ZM7.388 285.335h232.464c.439 0 .732.146 1.025.439l23.275 23.569-2.049 2.049-22.837-23.129H7.388v-2.928ZM214.669 331.155l2.05 2.05-38.061 38.06c-.293.293-.586.44-1.025.44H55.693v-2.928h121.355l37.621-37.622ZM190.957 5.732l58.994 58.995c.293.292.44.585.44 1.024v35.133h-2.928V66.337L188.908 7.782l2.049-2.05ZM204.283 78.345l2.049 2.05-38.793 39.085c-.292.293-.585.439-1.024.439H19.102v-2.927h146.681l38.5-38.647ZM67.41 36.474h65.581c.439 0 .732.146 1.025.439l41.281 41.281-2.05 2.05L132.405 39.4H67.409v-2.927Z"/><path d="M55.696 363.506a6.734 6.734 0 1 0 0 13.468 6.734 6.734 0 0 0 0-13.468ZM146.459 316.663c8.491 0 15.518 6.88 15.518 15.517s-6.881 15.517-15.518 15.517c-8.636 0-15.517-6.88-15.517-15.517s7.027-15.517 15.517-15.517Zm0 28.106c6.881 0 12.59-5.709 12.59-12.589 0-6.881-5.709-12.59-12.59-12.59-6.88 0-12.589 5.709-12.589 12.59 0 6.88 5.709 12.589 12.589 12.589ZM.653 286.506c0-3.66 3.075-6.734 6.734-6.734 3.66 0 6.734 3.074 6.734 6.734s-3.074 6.734-6.734 6.734-6.734-2.928-6.734-6.734ZM153.286 244.932a6.734 6.734 0 1 0 0 13.468 6.734 6.734 0 0 0 0-13.468ZM190.379 165.881a6.733 6.733 0 0 0-6.733 6.734 6.733 6.733 0 1 0 13.467 0 6.734 6.734 0 0 0-6.734-6.734ZM180.001 206.139a6.734 6.734 0 1 0 0 13.468 6.734 6.734 0 0 0 0-13.468ZM19.098 111.717a6.734 6.734 0 1 0 0 13.468 6.734 6.734 0 0 0 0-13.468ZM104.002 63.702c8.491 0 15.517 6.88 15.517 15.517s-6.88 15.517-15.517 15.517-15.517-6.88-15.517-15.517 7.027-15.517 15.517-15.517Zm0 28.106c6.88 0 12.59-5.709 12.59-12.59 0-6.88-5.71-12.589-12.59-12.589s-12.59 5.71-12.59 12.59 5.71 12.59 12.59 12.59ZM67.407 31.206a6.734 6.734 0 1 0 0 13.467 6.734 6.734 0 0 0 0-13.467ZM183.196 6.76c0-3.66 3.075-6.734 6.734-6.734 3.66 0 6.734 3.074 6.734 6.734s-3.074 6.734-6.734 6.734c-3.806-.147-6.734-3.075-6.734-6.734Z"/></g></g></symbol><symbol fill="none" viewBox="0 0 49 48" id="cake"><g stroke="currentColor" stroke-width="2" opacity=".9"><path d="M9.604 13.4c-2.103 0-3.8-1.693-3.8-3.754 0-.384.168-1.062.515-1.977.334-.879.79-1.865 1.266-2.82a67.796 67.796 0 0 1 2.02-3.713c.363.622 1.21 2.097 2.018 3.714.477.954.933 1.94 1.266 2.82.347.914.515 1.592.515 1.976 0 2.06-1.697 3.755-3.8 3.755ZM5.805 15.357a1.4 1.4 0 0 1 1.4-1.4h4.799a1.4 1.4 0 0 1 1.4 1.4v12.05h-7.6v-12.05ZM20.203 15.357a1.4 1.4 0 0 1 1.4-1.4h4.8a1.4 1.4 0 0 1 1.4 1.4v12.05h-7.6v-12.05ZM27.802 9.646c0 2.06-1.696 3.755-3.8 3.755-2.102 0-3.799-1.694-3.799-3.755 0-.384.168-1.062.515-1.977.334-.879.789-1.865 1.266-2.82a67.725 67.725 0 0 1 2.019-3.713c.364.622 1.21 2.097 2.019 3.714.477.954.932 1.94 1.266 2.82.347.914.514 1.592.514 1.976ZM34.602 15.357a1.4 1.4 0 0 1 1.4-1.4h4.8a1.4 1.4 0 0 1 1.399 1.4v12.05h-7.6v-12.05ZM38.401 13.4c-2.103 0-3.8-1.693-3.8-3.754 0-.384.169-1.062.516-1.977.333-.879.789-1.865 1.266-2.82A67.869 67.869 0 0 1 38.4 1.136c.364.622 1.211 2.097 2.02 3.714.477.954.932 1.94 1.266 2.82.346.914.514 1.592.514 1.976 0 2.06-1.696 3.755-3.8 3.755ZM.734 36.487l2.081 1.614c1.014.786 2.782.786 3.796 0l2.082-1.614c.464-.358 1.27-.36 1.735 0l2.08 1.614c1.049.813 2.752.811 3.797 0l2.08-1.614c.464-.358 1.27-.36 1.735 0l2.082 1.614c.507.393 1.181.61 1.898.61.717 0 1.391-.217 1.9-.61l2.08-1.614c.466-.36 1.272-.358 1.736 0l2.08 1.614c1.049.813 2.752.811 3.797 0l2.081-1.614c.465-.36 1.271-.358 1.735 0l2.081 1.614c1.046.81 2.749.812 3.796 0l2.082-1.614"/><rect width="45.995" height="19.523" rx="3.8" x="1.004" y="27.475"/></g></symbol><symbol fill="none" viewBox="0 0 50 50" id="case"><g stroke="currentColor" stroke-width="2" opacity=".9"><path d="M5.034 15.313a4 4 0 0 1 3.97-3.513h32.998a4 4 0 0 1 3.983 3.633l2.613 28.395a4 4 0 0 1-3.983 4.367H5.521a4 4 0 0 1-3.97-4.487l3.483-28.395Z"/><path stroke-linecap="round" d="M25 20.637v18.72M15.152 29.997h19.693"/><path d="M34.598 11.8V5.6a4 4 0 0 0-4-4h-11.2a4 4 0 0 0-4 4v6.2"/></g></symbol><symbol viewBox="0 0 48 48" id="dumbbells"><g data-name="Layer 2"><g data-name="Layer 1"><path fill="currentColor" d="M44.28 21.01a3.644 3.644 0 0 0 1.55-.91l.75-.75a3.643 3.643 0 0 0 1.06-2.56 3.6 3.6 0 0 0-1.06-2.56L33.77 1.42a3.646 3.646 0 0 0-5.12 0l-.74.75a3.566 3.566 0 0 0-.92 1.55l-1.98-1.98A3.585 3.585 0 0 0 22.46.69h-.01a3.568 3.568 0 0 0-2.55 1.05l-1.4 1.4a3.564 3.564 0 0 0-1.05 2.39l-.01.01v.16a3.6 3.6 0 0 0 1.06 2.56l6.54 6.54L14.8 25.04 8.26 18.5a3.621 3.621 0 0 0-5.12 0l-1.4 1.4a3.551 3.551 0 0 0-1.05 2.55v.18a3.572 3.572 0 0 0 1.05 2.38l1.98 1.98a3.566 3.566 0 0 0-1.55.92l-.75.74a3.591 3.591 0 0 0-1.05 2.56v.14a3.6 3.6 0 0 0 1.05 2.42l12.81 12.81a3.621 3.621 0 0 0 5.12 0l.75-.74a3.739 3.739 0 0 0 .91-1.56l1.98 1.98a3.621 3.621 0 0 0 5.12 0l1.39-1.4a3.592 3.592 0 0 0 1.05-2.31l.01-.25a3.6 3.6 0 0 0-1.06-2.56l-6.06-6.06 10.24-10.24 6.06 6.06a3.7 3.7 0 0 0 5.12 0l1.4-1.39a3.646 3.646 0 0 0 0-5.12ZM31.21 2.24a1.739 1.739 0 0 1 1.24.51l12.81 12.81a1.689 1.689 0 0 1 .5 1.15v.08a1.716 1.716 0 0 1-.51 1.23l-.74.75a1.75 1.75 0 0 1-2.47 0L29.23 5.96a1.75 1.75 0 0 1 0-2.47l.75-.74a1.716 1.716 0 0 1 1.23-.51ZM19.28 43.28a1.733 1.733 0 0 1-.51 1.23l-.75.74a1.776 1.776 0 0 1-2.46 0L2.75 32.44a1.738 1.738 0 0 1 0-2.46l.74-.75a1.733 1.733 0 0 1 1.23-.51h.01a1.716 1.716 0 0 1 1.23.51l12.81 12.81a1.744 1.744 0 0 1 .51 1.16Zm8.9-2.21a1.716 1.716 0 0 1 .51 1.23 1.739 1.739 0 0 1-.51 1.24l-1.4 1.39a1.8 1.8 0 0 1-2.47 0L3.07 23.69a1.733 1.733 0 0 1-.51-1.23v-.07a1.7 1.7 0 0 1 .51-1.17l1.39-1.4a1.739 1.739 0 0 1 1.24-.51h.01a1.733 1.733 0 0 1 1.23.51Zm-5.88-8.89-6-6 10.07-10.06 5.99 6Zm23.14-6.63a1.733 1.733 0 0 1-.51 1.23l-1.39 1.4a1.776 1.776 0 0 1-1.23.51h-.01a1.74 1.74 0 0 1-1.23-.51L19.82 6.94a1.762 1.762 0 0 1 0-2.48l1.4-1.39a1.716 1.716 0 0 1 1.23-.51h.01a1.733 1.733 0 0 1 1.23.51l21.24 21.24a1.7 1.7 0 0 1 .51 1.16Z"/><path fill="none" d="M0 0h48v48H0z"/></g></g></symbol><symbol viewBox="0 0 68 50" id="handshake"><g data-name="Layer 2"><g data-name="Layer 1"><path fill="currentColor" d="M66.85 14.77 53.21 1.15a2.3 2.3 0 0 0-1.16-.61l-.01-.05-.43.01a2.235 2.235 0 0 0-1.53.64l-5.59 5.59a2.228 2.228 0 0 0-.65 1.56 2.2 2.2 0 0 0 .56 1.46 3.825 3.825 0 0 1-3.87.54 6.319 6.319 0 0 0-6.95 1.35l-.3.3a5.872 5.872 0 0 0-2.78-1.48 20.512 20.512 0 0 0-6.4-.14 2.166 2.166 0 0 0-.59-2.05l-5.59-5.58a2.218 2.218 0 0 0-3.12-.01L1.15 16.3a2.2 2.2 0 0 0 0 3.12l5.59 5.59a2.226 2.226 0 0 0 2.99.12 16.915 16.915 0 0 1 2.93 4.94 12.993 12.993 0 0 0 3.42 3.99 3.592 3.592 0 0 0-.52 2.37 3.641 3.641 0 0 0 1.48 2.51 3.685 3.685 0 0 0 2.12.7 3.576 3.576 0 0 0 .27 1.82 3.688 3.688 0 0 0 1.74 1.85 3.809 3.809 0 0 0 1.81.38 3.656 3.656 0 0 0 5.82 3.12 3.622 3.622 0 0 0 3.51 2.69h.02a3.674 3.674 0 0 0 2.58-1.07l2.47-2.46a.01.01 0 0 0 .01-.01 3.574 3.574 0 0 0 2.15.4 3.627 3.627 0 0 0 3.08-2.63 3.716 3.716 0 0 0 2.9.76 3.666 3.666 0 0 0 2.68-1.99 3.615 3.615 0 0 0 .24-2.62 3.641 3.641 0 0 0 2.14-1.08 3.6 3.6 0 0 0 1.03-2.69l3.42-3.41a9.771 9.771 0 0 0 2.84-6.15 20.815 20.815 0 0 1 .42-2.94 2.212 2.212 0 0 0 2.97-.14l5.59-5.58a2.2 2.2 0 0 0 0-3.12Zm-58.77 8.9-5.59-5.59a.292.292 0 0 1 0-.44L16.13 4.02a.31.31 0 0 1 .22-.09h.01a.31.31 0 0 1 .22.09l5.59 5.58a.326.326 0 0 1 0 .45L8.53 23.67a.337.337 0 0 1-.45 0Zm10.69 13.95a1.777 1.777 0 0 1-1.23-1.22 1.8 1.8 0 0 1 .4-1.67l.84-.83a1.733 1.733 0 0 1 1.17-.52h.08a1.761 1.761 0 0 1 1.25 3.01l-.83.82a1.758 1.758 0 0 1-1.68.41Zm5.29 3.65a1.762 1.762 0 0 1-2.9-.81 1.743 1.743 0 0 1 .39-1.67l3.39-3.39a1.786 1.786 0 0 1 1.22-.48h.06a1.759 1.759 0 0 1 1.71 1.75 1.768 1.768 0 0 1-.48 1.22Zm3.83 3.84a1.8 1.8 0 0 1-1.71.46 1.768 1.768 0 0 1-.8-2.95l4.12-4.1a1.777 1.777 0 0 1 1.22-.49h.06a1.777 1.777 0 0 1 1.71 1.76 1.777 1.777 0 0 1-.49 1.22Zm8.15-.48-2.46 2.46a1.768 1.768 0 0 1-2.95-.8 1.758 1.758 0 0 1 .45-1.69l2.45-2.45a1.768 1.768 0 0 1 1.22-.49h.06a1.82 1.82 0 0 1 1.21.53 1.766 1.766 0 0 1 .5 1.23 1.744 1.744 0 0 1-.48 1.21Zm13.6-7.94a1.778 1.778 0 0 1-2.93.81l-3.65-3.64a.939.939 0 0 0-1.31.02.954.954 0 0 0-.02 1.33l4.43 4.41a1.769 1.769 0 0 1-.82 2.91 1.777 1.777 0 0 1-1.67-.41l-6.46-6.44a.944.944 0 0 0-1.32 1.35l4.46 4.45a1.766 1.766 0 0 1-2.02 2.83 3.659 3.659 0 0 0-3.92-4.56 3.649 3.649 0 0 0-.53-1.89 3.669 3.669 0 0 0-4.04-1.64 3.791 3.791 0 0 0-.89-2 3.7 3.7 0 0 0-2.63-1.23 3.617 3.617 0 0 0-2.7 1.07l-.07.07a3.662 3.662 0 0 0-3.5-2.64h-.02a3.674 3.674 0 0 0-2.58 1.07l-.1.09a11.119 11.119 0 0 1-2.97-3.38 18.5 18.5 0 0 0-3.3-5.47l11.23-11.21a18.6 18.6 0 0 1 4.58-.57c.28 0 .56.01.84.02a18.585 18.585 0 0 1 2.39.27 4.007 4.007 0 0 1 1.82.96l-8.64 8.62a3.656 3.656 0 0 0 5.18 5.16l6.16-6.14a.314.314 0 0 1 .44 0L49.2 35a1.778 1.778 0 0 1 .44 1.69Zm6.34-10.29a7.9 7.9 0 0 1-2.28 4.95l-2.77 2.77a4.2 4.2 0 0 0-.39-.45L37.96 21.11a9.122 9.122 0 0 0 4.34-1.48.972.972 0 0 0 .21-1.27.956.956 0 0 0-1.28-.28 7.193 7.193 0 0 1-5.8.93 2.192 2.192 0 0 0-2.13.57l-6.15 6.13a1.749 1.749 0 0 1-1.69.43 1.758 1.758 0 0 1-.81-2.92l10.27-10.24a4.385 4.385 0 0 1 2.29-1.22 4.473 4.473 0 0 1 2.58.27 5.648 5.648 0 0 0 5.94-.94l10.99 10.96a24.568 24.568 0 0 0-.74 4.35Zm9.53-9.85-5.59 5.58a.326.326 0 0 1-.45 0L45.82 8.51a.31.31 0 0 1-.09-.22.279.279 0 0 1 .09-.22l5.6-5.59a.31.31 0 0 1 .22-.09.334.334 0 0 1 .23.09L65.51 16.1a.31.31 0 0 1 .09.22.317.317 0 0 1-.09.23Z"/><path fill="none" d="M0 0h68v50H0z"/></g></g></symbol><symbol fill="none" viewBox="0 0 48 48" id="house"><rect width="9" height="9" stroke="currentColor" stroke-width="2" rx="1" x="26.938" y="27.895"/><path stroke="currentColor" stroke-width="2" d="M8.148 21.235V46a1 1 0 0 0 1 1h29.785a1 1 0 0 0 1-1V21.235M22.148 47V28.895a1 1 0 0 0-1-1h-7a1 1 0 0 0-1 1V47M2.448 21h43.104c1.363 0 1.968-1.67.908-2.504L24.62 1.312a1.474 1.474 0 0 0-1.83.012L1.526 18.507C.484 19.35 1.094 21 2.448 21Z"/></symbol><symbol fill="none" viewBox="0 0 48 48" id="printer"><g clip-path="url(#ia)"><path stroke="currentColor" stroke-width="2" d="M36.723 12.747V1H11.277v11.747M9.32 38.418 1 38.425V18.612c0-3.24 2.63-5.865 5.872-5.865h34.256A5.869 5.869 0 0 1 47 18.612v19.813l-8.318-.007M9.321 29.836h29.361V47H9.321V29.836Z"/></g><defs><clipPath id="ia"><path fill="currentColor" d="M0 0h48v48H0z"/></clipPath></defs></symbol><symbol fill="none" viewBox="0 0 48 48" id="smartphone"><g stroke="currentColor" stroke-width="2" clip-path="url(#ja)" opacity=".9"><rect width="31.6" height="46" rx="4" x="8.199" y="1"/><path d="M15.398 1h17.2v4a2 2 0 0 1-2 2h-13.2a2 2 0 0 1-2-2V1Z"/><path stroke-linecap="round" d="M19.2 40h9.6"/></g><defs><clipPath id="ja"><path fill="currentColor" d="M0 0h48v48H0z"/></clipPath></defs></symbol></svg>