<svg xmlns="http://www.w3.org/2000/svg" viewBox="0 0 68 50">
  <title>Asset 2</title>
  <g id="Layer_2" data-name="Layer 2">
    <g id="Layer_1-2" data-name="Layer 1">
      <path d="M66.85,14.77,53.21,1.15A2.3,2.3,0,0,0,52.05.54L52.04.49,51.61.5a2.235,2.235,0,0,0-1.53.64L44.49,6.73a2.228,2.228,0,0,0-.65,1.56,2.2,2.2,0,0,0,.56,1.46,3.825,3.825,0,0,1-3.87.54,6.319,6.319,0,0,0-6.95,1.35l-.3.3a5.872,5.872,0,0,0-2.78-1.48,20.512,20.512,0,0,0-6.4-.14,2.166,2.166,0,0,0-.59-2.05L17.92,2.69a2.218,2.218,0,0,0-3.12-.01L1.15,16.3a2.2,2.2,0,0,0,0,3.12l5.59,5.59a2.226,2.226,0,0,0,2.99.12,16.915,16.915,0,0,1,2.93,4.94,12.993,12.993,0,0,0,3.42,3.99,3.592,3.592,0,0,0-.52,2.37,3.641,3.641,0,0,0,1.48,2.51,3.685,3.685,0,0,0,2.12.7,3.576,3.576,0,0,0,.27,1.82,3.688,3.688,0,0,0,1.74,1.85,3.809,3.809,0,0,0,1.81.38,3.656,3.656,0,0,0,5.82,3.12,3.622,3.622,0,0,0,3.51,2.69h.02a3.674,3.674,0,0,0,2.58-1.07l2.47-2.46a.01.01,0,0,0,.01-.01,3.574,3.574,0,0,0,2.15.4,3.627,3.627,0,0,0,3.08-2.63,3.716,3.716,0,0,0,2.9.76A3.666,3.666,0,0,0,48.2,42.5a3.615,3.615,0,0,0,.24-2.62,3.641,3.641,0,0,0,2.14-1.08,3.6,3.6,0,0,0,1.03-2.69l3.42-3.41a9.771,9.771,0,0,0,2.84-6.15,20.815,20.815,0,0,1,.42-2.94,2.212,2.212,0,0,0,2.97-.14l5.59-5.58a2.2,2.2,0,0,0,0-3.12ZM8.08,23.67,2.49,18.08a.292.292,0,0,1,0-.44L16.13,4.02a.31.31,0,0,1,.22-.09h.01a.31.31,0,0,1,.22.09L22.17,9.6a.326.326,0,0,1,0,.45L8.53,23.67A.337.337,0,0,1,8.08,23.67ZM18.77,37.62a1.777,1.777,0,0,1-1.23-1.22,1.8,1.8,0,0,1,.4-1.67l.84-.83a1.733,1.733,0,0,1,1.17-.52h.08a1.761,1.761,0,0,1,1.25,3.01l-.83.82A1.758,1.758,0,0,1,18.77,37.62Zm5.29,3.65a1.762,1.762,0,0,1-2.9-.81,1.743,1.743,0,0,1,.39-1.67l3.39-3.39a1.786,1.786,0,0,1,1.22-.48h.06a1.759,1.759,0,0,1,1.71,1.75,1.768,1.768,0,0,1-.48,1.22Zm3.83,3.84a1.8,1.8,0,0,1-1.71.46,1.768,1.768,0,0,1-.8-2.95l4.12-4.1a1.777,1.777,0,0,1,1.22-.49h.06a1.777,1.777,0,0,1,1.71,1.76A1.777,1.777,0,0,1,32,41.01Zm8.15-.48-2.46,2.46a1.768,1.768,0,0,1-2.95-.8,1.758,1.758,0,0,1,.45-1.69l2.45-2.45a1.768,1.768,0,0,1,1.22-.49h.06a1.82,1.82,0,0,1,1.21.53,1.766,1.766,0,0,1,.5,1.23A1.744,1.744,0,0,1,36.04,44.63Zm13.6-7.94a1.778,1.778,0,0,1-2.93.81l-3.65-3.64a.939.939,0,0,0-1.31.02.954.954,0,0,0-.02,1.33l4.43,4.41a1.769,1.769,0,0,1-.82,2.91,1.777,1.777,0,0,1-1.67-.41l-6.46-6.44a.944.944,0,0,0-1.32,1.35l4.46,4.45a1.766,1.766,0,0,1-2.02,2.83,3.659,3.659,0,0,0-3.92-4.56,3.649,3.649,0,0,0-.53-1.89,3.669,3.669,0,0,0-4.04-1.64,3.791,3.791,0,0,0-.89-2,3.7,3.7,0,0,0-2.63-1.23,3.617,3.617,0,0,0-2.7,1.07l-.07.07a3.662,3.662,0,0,0-3.5-2.64h-.02a3.674,3.674,0,0,0-2.58,1.07l-.1.09a11.119,11.119,0,0,1-2.97-3.38,18.5,18.5,0,0,0-3.3-5.47L22.31,12.59a18.6,18.6,0,0,1,4.58-.57c.28,0,.56.01.84.02a18.585,18.585,0,0,1,2.39.27,4.007,4.007,0,0,1,1.82.96L23.3,21.89a3.656,3.656,0,0,0,5.18,5.16l6.16-6.14a.314.314,0,0,1,.44,0L49.2,35A1.778,1.778,0,0,1,49.64,36.69ZM55.98,26.4a7.9,7.9,0,0,1-2.28,4.95l-2.77,2.77a4.2,4.2,0,0,0-.39-.45L37.96,21.11a9.122,9.122,0,0,0,4.34-1.48.972.972,0,0,0,.21-1.27.956.956,0,0,0-1.28-.28,7.193,7.193,0,0,1-5.8.93,2.192,2.192,0,0,0-2.13.57l-6.15,6.13a1.749,1.749,0,0,1-1.69.43,1.758,1.758,0,0,1-.81-2.92L34.92,12.98a4.385,4.385,0,0,1,2.29-1.22,4.473,4.473,0,0,1,2.58.27,5.648,5.648,0,0,0,5.94-.94L56.72,22.05A24.568,24.568,0,0,0,55.98,26.4Zm9.53-9.85-5.59,5.58a.326.326,0,0,1-.45,0L45.82,8.51a.31.31,0,0,1-.09-.22.279.279,0,0,1,.09-.22l5.6-5.59a.31.31,0,0,1,.22-.09.334.334,0,0,1,.23.09L65.51,16.1a.31.31,0,0,1,.09.22A.317.317,0,0,1,65.51,16.55Z" fill="#b01736"/>
      <rect width="68" height="50" fill="none"/>
    </g>
  </g>
</svg>
